<?xml version="1.0" encoding="UTF-8"?>
<svg id="Layer_2" data-name="Layer 2" xmlns="http://www.w3.org/2000/svg" viewBox="0 0 176.14 211.24">
  <defs>
    <style>
      .cls-1, .cls-2 {
        stroke-width: 0px;
        fill: #19455e;
      }

      .cls-2 {
        fill: #fff;
      }
    </style>
  </defs>
  <g id="Layer_1-2" data-name="Layer 1">
    <path class="cls-2" d="m69.17,39.72s-.1.03.01.01c-.27.11-.6.39-.66.7-.06.24-.08.5-.11.74-.23,2.48.45,4.96,1.71,7.09-3.1-.8-5.85-3.18-7.72-5.7-.22-.37-.65-.57-1.08-.47-.09.02-.17.05-.25.1-15.82,2.61-32.94,1.68-47.34-5.71-4.89-2.71-10.05-6.65-10.95-12.46-.75-6.02,3.66-11.01,8.52-14.24C21.74,3.12,34.71,1.38,46.89,1.94c12.19.37,38.57,6.61,38.16,21.91-.73,7.68-8.68,12.65-15.22,15.59-.2.08-.46.2-.66.28Z"/>
    <g>
      <path class="cls-1" d="m152.72,92.95c11.61-4.09,19.15-12.19,22.72-23.97.44-1.46.67-3.03.7-4.55.04-2.33-1.37-3.87-3.68-4.24-2.53-.4-4.9.05-6.72,1.94-1.16,1.2-2.13,2.61-3.03,4.03-2.26,3.62-5.17,6.56-8.75,8.87-5.77,3.74-12.31,4.56-18.94,5.04-.2.01-.42-.11-.71-.19-.71-3.5-1.51-6.99-2.1-10.52-.6-3.51-.98-7.05-1.48-10.74.49.19.69.26.89.35,7.68,3.64,15.2-.67,18.76-6.15,1.12-1.73.67-3.42-1-4.62-.53-.38-1.12-.7-1.7-1.02-2.92-1.61-6.03-2.62-9.41-3.06.11-.53.24-.95.3-1.37.21-1.52.55-3.05.55-4.58,0-2.92-1.26-5.42-3.13-7.59-1.1-1.29-2.79-1.64-4.2-1.02-1.23.53-1.62,1.56-1.36,3.59.15,1.24.34,2.48.43,3.72.1,1.33-.4,2.46-1.36,3.36-1.24,1.16-2.68,1.94-4.4,2.25-.15-4.09-2-3.9-5.27-3.98-.32-.41-.65-.89-1.03-1.33-1.21-1.37-2.74-1.67-4.36-.83-.45.23-.91.5-1.27.86-1.04,1.03-2.17,1.41-3.7,1.28-1.92-.15-3.56.83-3.92,2.8-.08.45-.4.86-.71,1.5-1.19-.78-2.29-1.37-3.24-2.16-1.58-1.31-1.88-3.12-.94-4.96.27-.52.65-.99.93-1.5.92-1.66.11-3.39-1.77-3.55-.84-.08-1.79.06-2.55.41-3.62,1.65-5.41,4.66-5.74,8.5-.26,2.94.58,5.67,2.28,8.12.36.51.63,1.08,1.16,2.02-1.14,0-1.86-.08-2.56.01-2.17.27-4.38.43-6.5.95-2.01.49-3.82,1.55-5.29,3.05-1.33,1.35-1.48,2.65-.34,4.15.97,1.29,2.05,2.52,3.24,3.59,3.87,3.43,8.24,5.33,13.54,4.2.38-.08.8.04,1.19.06-.08,1.11-.15,2.06-.2,3.02-.08,1.53-.52,2.76-1.84,3.79-.92.72-1.61,1.93-2.01,3.05-.59,1.64-.83,3.4-1.29,5.38-.74.14-1.65.41-2.57.45-2.27.11-4.55.13-6.82.14-3.49.01-6.45-1.25-8.83-3.82-1.25-1.35-2.42-2.78-3.75-4.05-1.27-1.2-2.57-2.47-4.09-3.29-2.22-1.19-4.64-1.06-6.63.59-1.93,1.6-1.55,3.8-.94,5.93.12.42.27.84.45,1.24,1.02,2.12,1.94,4.29,3.09,6.34,3.2,5.71,7.91,9.81,13.84,12.47,3.33,1.5,6.88,2.06,10.5,2.16,1.52.04,3.04.1,4.62.15.04.56.09.91.08,1.26-.14,3.97-.36,7.94-.41,11.9-.08,6.13.51,12.2,1.78,18.2.53,2.46,1.22,4.83,2.76,6.9.55.74.84,1.72,1.04,2.64,1.48,6.82,2.93,13.66,4.36,20.5.44,2.09.69,4.19.3,6.35-2.03,11-4.01,22-5.97,33.01-.34,1.91-.89,3.22-3.26,3.29-1.94.05-3.2,1.98-3.17,4.1.02,1.78,1.14,3.03,3.11,3.45.36.08.72.15,1.09.15,5.72-.04,11.45.04,17.17-.18,2.93-.11,3.96-1.81,3.15-4.72-.59-2.1-.74-4.21-.58-6.34.86-11.08,1.75-22.15,2.61-33.23.08-1.09.13-2.22-.04-3.29-.48-2.9-1.11-5.78-1.63-8.67-.37-2.07-.66-4.15-.99-6.29h11.4c2.62,5.96,9.87,50.31,8.85,54.55-.7.11-1.43.19-2.14.34-1.85.38-2.98,1.74-3.13,3.74-.15,1.83.78,3.25,2.69,3.77,1.26.34,2.6.54,3.91.56,4.11.05,8.23,0,12.34-.06.66,0,1.32-.12,1.97-.25,2.5-.49,3.17-1.57,2.61-4.09-1.05-4.66-2.21-9.3-3.12-13.99-2.96-15.31-5.8-30.64-8.76-45.96-.39-2.05-.07-3.91.58-5.83.9-2.64,1.69-5.32,2.53-7.98.17-.52.37-1.03.68-1.89,1.32,2.37,3.03,3.41,3.76,4.21.81.88,1.85.94,2.6.36,1.16-.5,2.2-2.2,2.91-3.63.93.89,2.1,1.44,3.49,1.46,1.74.01,3.61,0,5.18-.62,3.96-1.57,7.16-4.3,9.76-7.67,1.16-1.51.98-3.06-.2-4.44-1.25-1.46-2.83-1.83-4.55-.95-.77.4-1.44,1-2.17,1.49-.64.43-1.3.83-2.12,1.35-.11-1.14-.14-1.94-.28-2.73-.67-3.81-3.98-5.17-7.03-2.8-1.14.89-2.05,2.09-3.02,3.19-1.01,1.14-1.96,2.33-2.99,3.55-1.14-.66-2.06-1.25-3.03-1.75-1.1-.57-1.53-1.44-1.61-2.66-.49-7.43-1.73-14.75-3.18-22.05-.11-.54-.08-1.1-.12-1.71.74-.16,1.31-.27,1.87-.41,3.28-.79,6.65-1.32,9.82-2.43Zm2.35,33.69c.09-2.59.51-5.1,2.93-6.72,1.09.48,1.12,1.36,1,2.25-.1.8-.34,1.58-.41,2.38-.07.78-.01,1.57-.01,2.36,3.1,1.3,4.99-1.8,7.92-1.99-.42.6-.61,1.09-.97,1.33-1.63,1.1-3.28,2.17-4.97,3.18-.48.29-1.11.37-1.69.46-2.83.43-3.89-.44-3.79-3.26Zm-11.34-2.96c1.39.99,2.63,1.87,3.86,2.77,1.9,1.39,2.16,1.35,3.68-.61.09-.11.22-.19.61-.54-.25,1.19-.55,2.09-.6,2.98-.5,1.88-.55,2.83-2.48,3.37-.41-.43-.82-.9-1.17-1.44-1-1.55-2-3.11-3.64-4.06-1.07-.61-.82-1.33-.25-2.46Zm-6.79-75.44c.92-.38,2.22-.32,3.18,0,1.48.5,2.84,1.41,4.27,2.16-2.98,4.62-9.66,5.88-13.79,2.62,1.75-2.23,3.89-3.79,6.33-4.79Zm-9.61-3.11c.68-.43,1.4-.8,2.11-1.18,3.53-1.85,5-4.78,4.6-8.71-.08-.8-.12-1.59-.22-2.77,4.24,4.64,1.15,15.22-6.67,17.09-.27-.42-.64-.87-.84-1.38-.68-1.67-.53-2.08,1.02-3.05Zm.44,37.78c-.91.91-2.09,1.69-3.3,2.08-1.93.63-3.98,1.08-6,1.26-3.87.37-7.79.41-11.61-.45-1.83-.42-3.71-1.01-5.32-1.95-4.25-2.49-4.12-7.38.13-9.92,1.88-1.12,3.98-1.49,6.1-1.69,1.9-.18,3.81-.23,5.71-.33,0-.07.02-.13.02-.19,2.84.32,5.69.58,8.51.99,1.91.28,3.62,1.15,5.16,2.35,2.66,2.07,3,5.46.61,7.85Zm-20.39-36.9c1.13.47,1.97.82,2.87,1.19,1.13-2.28-1.84-3.82-.72-6.03.96.14,1.23,1.02,1.81,1.49.54.44,1.21,1.1,1.77,1.06,1-.09,1.22-1.11,1.35-2.01.14-1,.02-2.11,1.3-2.81.23.42.54.8.66,1.23.16.56.11,1.18.25,1.74.34,1.37,1.01,1.66,2.22.98.7-.4,1.39-.82,2.09-1.21.11-.06.28-.03.53-.04.55.95.13,1.76-.41,2.56-.37.55-.82,1.06-1.06,1.66-.43,1.05.16,1.81,1.26,1.63.71-.12,1.37-.47,2.29-.8.32,1.35.77,2.65.93,4,.73,5.98,1.38,11.98,2.04,17.97.08.71.1,1.43.17,2.5-7.93-1.91-15.68-2.71-23.83-.87,1.33-8.26,2.65-16.25,4.47-24.21Zm-9.77-11.88c0,1.82-.09,3.41.02,5,.13,1.79,1.1,3.18,2.56,4.18,1.57,1.06,3.2,2.05,4.96,3.16-.43,1.16-.87,2.37-1.41,3.82-3.92-1.41-6.43-4.01-7.72-7.67-1.03-2.94-1.03-5.88,1.59-8.48Zm-4.05,25.92c-2.28-.99-4.57-1.96-6.2-4.08,1.01-1.81,2.76-2.21,4.39-2.79,3.69-1.32,6.92-.08,10.2,2,.36,1.43-.2,2.56-1.28,3.49-2.1,1.82-4.4,2.57-7.11,1.39Zm45.98,29.74c-4.34.73-4.82,1.35-3.71,5.66,2.49,9.73,4.25,19.55,3.88,29.66-.12,3.33-.62,6.58-1.7,9.74-.75,2.19-1.74,4.23-3.48,5.8-1.13,1.01-1.3,2.14-1.01,3.57,2.81,13.99,5.57,27.99,8.33,41.99.97,4.9,1.89,9.82,2.78,14.74.19,1.06.16,2.16.25,3.46h-7.06c-2.61-21.19-6.14-42.32-11.61-63.39-6.31,2.37-12.43,1.68-18.88-.27.12,1.27.15,2.19.31,3.08,1.12,6.23,2.25,12.45,3.41,18.67.41,2.2.24,4.37-.08,6.58-1.1,7.64-2.12,15.3-3.12,22.95-.47,3.57-.8,7.17-1.24,10.75-.2,1.6-.33,1.69-1.93,1.81-1.17.09-2.35.11-3.52.08-1.64-.04-1.95-.31-1.78-2.01.28-2.77.67-5.55,1.13-8.3,1.5-9.14,3.09-18.27,4.54-27.43.25-1.56.18-3.26-.12-4.81-1.2-6.28-2.55-12.54-3.84-18.8-.11-.57-.15-1.18-.33-1.73-.47-1.4-.18-2.56.87-3.59.9-.88.91-1.91.46-3.05-2.86-7.15-3.63-14.68-3.94-22.27-.2-4.92-.08-9.86-.11-14.78,0-1.17.03-2.36-.14-3.52-.22-1.5-.7-1.82-2.23-1.82-3,0-6.03.19-9.02-.02-6.34-.45-11.6-3.04-15.2-8.49-1.9-2.87-3.72-5.79-5.56-8.64.96-1.06,1.74-1.15,2.55-.23.49.55,1.04,1.04,1.52,1.59,5.23,6.15,11.9,8.29,19.76,7.18.36-.05.73-.08,1.09-.15,2.71-.61,4.95-.36,7.03,2.02,1.25,1.43,3.43,2.29,5.35,2.85,6.75,1.99,13.6,2.08,20.46.41,3.61-.88,6.72-2.58,8.95-5.62.75-1.02,1.69-1.03,2.71-1.08,4.56-.23,9.06-.83,13.43-2.25,6.73-2.19,12.12-6.17,16-12.14.4-.62.81-1.23,1.27-1.8.76-.95,1.71-1.38,3.17-.66-1.05,2.67-1.93,5.46-3.21,8.06-3.5,7.14-9.44,11.55-16.8,14.04-3.11,1.06-6.39,1.64-9.64,2.19Z"/>
      <path class="cls-2" d="m166.49,124.92c-.42.6-.61,1.09-.97,1.33-1.63,1.1-3.28,2.17-4.97,3.18-.48.29-1.11.37-1.69.46-2.83.43-3.89-.44-3.79-3.26.09-2.59.51-5.1,2.93-6.72,1.09.48,1.12,1.36,1,2.25-.1.8-.34,1.58-.41,2.38-.07.78-.01,1.57-.01,2.36,3.1,1.3,4.99-1.8,7.92-1.99Z"/>
      <path class="cls-2" d="m151.87,125.28c-.25,1.19-.55,2.09-.6,2.98-.5,1.88-.55,2.83-2.48,3.37-.41-.43-.82-.9-1.17-1.44-1-1.55-2-3.11-3.64-4.06-1.07-.61-.82-1.33-.25-2.46,1.39.99,2.63,1.87,3.86,2.77,1.9,1.39,2.16,1.35,3.68-.61.09-.11.22-.19.61-.54Z"/>
      <path class="cls-2" d="m105.15,46.46c-.43,1.16-.87,2.37-1.41,3.82-3.92-1.41-6.43-4.01-7.72-7.67-1.03-2.94-1.03-5.88,1.59-8.48,0,1.82-.09,3.41.02,5,.13,1.79,1.1,3.18,2.56,4.18,1.57,1.06,3.2,2.05,4.96,3.16Z"/>
      <path class="cls-2" d="m127.14,49.55c-.27-.42-.64-.87-.84-1.38-.68-1.67-.53-2.08,1.02-3.05.68-.43,1.4-.8,2.11-1.18,3.53-1.85,5-4.78,4.6-8.71-.08-.8-.12-1.59-.22-2.77,4.24,4.64,1.15,15.22-6.67,17.09Z"/>
      <path class="cls-2" d="m144.39,50.4c-2.98,4.62-9.66,5.88-13.79,2.62,1.75-2.23,3.89-3.79,6.33-4.79.92-.38,2.22-.32,3.18,0,1.48.5,2.84,1.41,4.27,2.16Z"/>
      <path class="cls-2" d="m100.67,58.66c-2.1,1.82-4.4,2.57-7.11,1.39-2.28-.99-4.57-1.96-6.2-4.08,1.01-1.81,2.76-2.21,4.39-2.79,3.69-1.32,6.92-.08,10.2,2,.36,1.43-.2,2.56-1.28,3.49Z"/>
      <path class="cls-2" d="m126.56,68.59c-.66-5.99-1.31-11.98-2.04-17.97-.16-1.34-.61-2.65-.93-4-.92.33-1.59.68-2.29.8-1.1.19-1.69-.58-1.26-1.63.24-.6.7-1.11,1.06-1.66.54-.8.96-1.61.41-2.56-.25.02-.42-.02-.53.04-.7.39-1.39.81-2.09,1.21-1.21.68-1.89.4-2.22-.98-.14-.57-.09-1.18-.25-1.74-.12-.43-.43-.82-.66-1.23-1.28.71-1.16,1.82-1.3,2.81-.13.9-.34,1.93-1.35,2.01-.56.04-1.22-.62-1.77-1.06-.58-.47-.85-1.35-1.81-1.49-1.12,2.21,1.85,3.75.72,6.03-.89-.37-1.74-.72-2.87-1.19-1.82,7.96-3.15,15.96-4.47,24.21,8.15-1.83,15.89-1.04,23.83.87-.07-1.07-.09-1.79-.17-2.5Zm-15.23-5.75c-1.01,0-1.78-.89-1.8-2.08-.02-1.17.73-1.93,1.88-1.91,1,.02,1.67.77,1.69,1.88.02,1.14-.79,2.1-1.77,2.1Zm7.09-.1c-.85-.06-1.49-.9-1.44-1.9.05-1.16.88-1.97,1.98-1.91.97.05,1.63.76,1.61,1.73-.02,1.14-1.06,2.15-2.15,2.07Z"/>
      <path class="cls-2" d="m127.15,75.05c-1.53-1.2-3.24-2.07-5.16-2.35-2.82-.41-5.67-.67-8.51-.99,0,.07-.01.13-.02.19-1.9.1-3.82.15-5.71.33-2.12.2-4.22.57-6.1,1.69-4.25,2.54-4.37,7.43-.13,9.92,1.61.95,3.49,1.54,5.32,1.95,3.83.86,7.74.81,11.61.45,2.03-.19,4.07-.63,6-1.26,1.21-.39,2.39-1.17,3.3-2.08,2.39-2.39,2.05-5.78-.61-7.85Zm-21.29,7.03c-1.76-.04-3.54-1.65-3.6-3.24-.06-1.7,1.33-2.83,3.45-2.83,2.27,0,3.56,1.06,3.6,2.94.04,1.88-1.4,3.18-3.45,3.13Zm17.98-.54c-1.6.95-3.19,1.06-4.52.05-1.09-.82-1.58-2.32-1.16-3.53.44-1.28,1.62-1.9,3.75-1.8.31.08.98.18,1.57.44,1.93.88,2.27,3.7.35,4.84Z"/>
      <path class="cls-2" d="m169.18,65.5c-1.05,2.67-1.93,5.46-3.21,8.06-3.5,7.14-9.44,11.55-16.8,14.04-3.11,1.06-6.39,1.64-9.64,2.19-4.34.73-4.82,1.35-3.71,5.66,2.49,9.73,4.25,19.55,3.88,29.66-.12,3.33-.62,6.58-1.7,9.74-.75,2.19-1.74,4.23-3.48,5.8-1.13,1.01-1.3,2.14-1.01,3.57,2.81,13.99,5.57,27.99,8.33,41.99.97,4.9,1.89,9.82,2.78,14.74.19,1.06.16,2.16.25,3.46h-7.06c-2.61-21.19-6.14-42.32-11.61-63.39-6.31,2.37-12.43,1.68-18.88-.27.12,1.27.15,2.19.31,3.08,1.12,6.23,2.25,12.45,3.41,18.67.41,2.2.24,4.37-.08,6.58-1.1,7.64-2.12,15.3-3.12,22.95-.47,3.57-.8,7.17-1.24,10.75-.2,1.6-.33,1.69-1.93,1.81-1.17.09-2.35.11-3.52.08-1.64-.04-1.95-.31-1.78-2.01.28-2.77.67-5.55,1.13-8.3,1.5-9.14,3.09-18.27,4.54-27.43.25-1.56.18-3.26-.12-4.81-1.2-6.28-2.55-12.54-3.84-18.8-.11-.57-.15-1.18-.33-1.73-.47-1.4-.18-2.56.87-3.59.9-.88.91-1.91.46-3.05-2.86-7.15-3.63-14.68-3.94-22.27-.2-4.92-.08-9.86-.11-14.78,0-1.17.03-2.36-.14-3.52-.22-1.5-.7-1.82-2.23-1.82-3,0-6.03.19-9.02-.02-6.34-.45-11.6-3.04-15.2-8.49-1.9-2.87-3.72-5.79-5.56-8.64.96-1.06,1.74-1.15,2.55-.23.49.55,1.04,1.04,1.52,1.59,5.23,6.15,11.9,8.29,19.76,7.18.36-.05.73-.08,1.09-.15,2.71-.61,4.95-.36,7.03,2.02,1.25,1.43,3.43,2.29,5.35,2.85,6.75,1.99,13.6,2.08,20.46.41,3.61-.88,6.72-2.58,8.95-5.62.75-1.02,1.69-1.03,2.71-1.08,4.56-.23,9.06-.83,13.43-2.25,6.73-2.19,12.12-6.17,16-12.14.4-.62.81-1.23,1.27-1.8.76-.95,1.71-1.38,3.17-.66Z"/>
      <path class="cls-1" d="m113.1,60.73c.02,1.14-.79,2.1-1.77,2.1-1.01,0-1.78-.89-1.8-2.08-.02-1.17.73-1.93,1.88-1.91,1,.02,1.67.77,1.69,1.88Z"/>
      <path class="cls-1" d="m120.56,60.67c-.02,1.14-1.06,2.15-2.15,2.07-.85-.06-1.49-.9-1.44-1.9.05-1.16.88-1.97,1.98-1.91.97.05,1.63.76,1.61,1.73Z"/>
      <path class="cls-1" d="m123.84,81.54c-1.6.95-3.19,1.06-4.52.05-1.09-.82-1.58-2.32-1.16-3.53.44-1.28,1.62-1.9,3.75-1.8.31.08.98.18,1.57.44,1.93.88,2.27,3.7.35,4.84Z"/>
      <path class="cls-1" d="m109.31,78.96c.04,1.88-1.4,3.18-3.45,3.13-1.76-.04-3.54-1.65-3.6-3.24-.06-1.7,1.33-2.83,3.45-2.83,2.27,0,3.56,1.06,3.6,2.94Z"/>
    </g>
    <g>
      <path class="cls-1" d="m26.57,25.37c.03.21,0,.39-.08.53-.08.14-.12.26-.12.38,0,.03,0,.06.02.1.01.04.02.08.02.12,0,.14-.01.28-.03.41s-.03.25-.03.38.01.24.04.37c.03.12.09.25.17.38-.03.11-.05.26-.05.43,0,.17.05.29.16.37-.03.11-.05.2-.05.27,0,.06.02.15.1.25-.01.1-.04.2-.08.29-.04.09-.01.18.08.27-.06.19-.18.32-.37.39-.19.07-.35.16-.49.26-.06.01-.1,0-.13-.02s-.07-.05-.13-.06c-.03.03-.06.06-.1.1-.04.04-.08.05-.14.05-.14-.09-.24-.13-.3-.12-.06,0-.1,0-.13-.03-.11-.17-.19-.28-.24-.32l-.13-.13s-.08-.09-.12-.14c-.04-.05-.05-.12-.05-.2,0-.11.01-.21.04-.29.03-.08,0-.17-.06-.27.14-.11.19-.23.15-.35-.04-.12-.13-.22-.26-.29.14-.04.19-.11.14-.21-.05-.1-.08-.19-.08-.26,0-.09.02-.17.08-.25.05-.08.08-.17.08-.27-.04-.17-.05-.3-.01-.38.04-.08.05-.16.05-.25,0-.16.02-.29.08-.39.05-.1.06-.24.03-.43-.09-.1-.2-.15-.34-.15-.09,0-.17.01-.25.04-.08.03-.16.04-.25.04-.07,0-.14,0-.19-.02-.06-.01-.12-.03-.19-.04-.11-.03-.24-.04-.37-.03-.13,0-.25,0-.37-.03-.17-.03-.35-.06-.54-.11-.19-.04-.37,0-.54.11-.06-.06-.16-.07-.31-.04-.15.03-.27,0-.35-.09-.06,0-.1.02-.14.05s-.09.05-.16.05c-.09,0-.19-.03-.31-.09-.12-.06-.23-.11-.31-.15-.07-.06-.15-.09-.25-.1-.09,0-.18-.04-.25-.1-.07,0-.12.01-.15.04s-.06.06-.11.09c-.17-.04-.28-.06-.32-.05-.04,0-.09.01-.13.01-.13,0-.25-.01-.38-.04-.12-.03-.25-.04-.38-.04-.06,0-.11.01-.17.03-.06.02-.11.03-.17.01-.04.01-.09.03-.13.05s-.09.03-.13.03c-.03,0-.08-.01-.16-.04-.08-.03-.17-.06-.27-.11-.1-.04-.19-.09-.27-.13-.08-.04-.13-.07-.16-.09-.07.07-.1.18-.08.33s.03.27.03.35,0,.17-.02.25c-.01.08-.02.16-.02.25,0,.16.04.27.13.34-.01.17-.03.38-.03.61,0,.24-.01.48-.01.73s0,.49.02.71c.01.22.04.41.09.57.01.06.03.11.05.15s.03.1.03.17c0,.11-.02.23-.05.34-.04.11-.07.23-.1.34-.07-.03-.12-.02-.14.03-.02.05-.06.09-.12.12-.06.03-.14.04-.25.04s-.2.01-.27.04c-.06.03-.11.05-.17.08-.06.02-.11.05-.17.08-.11-.04-.22-.09-.31-.14-.09-.05-.2-.1-.31-.14-.03-.11-.06-.23-.1-.33-.04-.11-.05-.22-.05-.33,0-.06.02-.1.05-.14s.05-.08.05-.14c0-.13-.03-.21-.08-.24-.05-.03-.09-.06-.13-.1-.04-.04-.05-.1-.04-.18,0-.09.07-.24.18-.45-.01-.07-.04-.13-.06-.18-.03-.05-.06-.11-.09-.18.03-.07.06-.16.1-.28.04-.11,0-.19-.1-.24.01-.03.03-.06.04-.1.01-.04.02-.08.02-.12,0-.06-.02-.1-.05-.12-.04-.02-.05-.05-.05-.1s0-.09.02-.13c.01-.04.02-.09.02-.15,0-.13,0-.24-.02-.34-.01-.1.01-.21.09-.34-.07-.07-.11-.15-.11-.24,0-.07,0-.13.02-.18.01-.05.02-.11.02-.18,0-.06,0-.11-.02-.15-.01-.04-.02-.09-.02-.13v-.37c0-.1-.01-.2-.03-.29-.02-.09-.03-.19-.03-.29,0-.07.02-.14.05-.2.04-.06.05-.13.05-.2,0-.04,0-.09-.02-.13-.01-.04-.02-.09-.02-.13,0-.07.01-.13.04-.18.03-.05.05-.1.06-.16.03-.16.03-.33.01-.52-.02-.19-.05-.36-.08-.52.07-.11.13-.23.18-.33.05-.11.08-.23.08-.35,0-.1,0-.19-.02-.28-.01-.09-.02-.17-.02-.26,0-.1.02-.19.05-.28.04-.09.05-.17.05-.26,0-.07-.01-.15-.03-.23-.02-.08-.03-.15-.03-.23,0-.16.01-.3.04-.44.03-.14.01-.28-.04-.42.09-.06.12-.13.12-.21,0-.09-.01-.17-.01-.26,0-.04,0-.08.02-.12.01-.04.02-.07.02-.1,0-.07,0-.13-.02-.17-.01-.04-.02-.1-.02-.17,0-.19,0-.38.02-.57.01-.19-.04-.38-.17-.55.09-.11.1-.26.05-.44-.05-.18-.1-.33-.16-.44.09-.09.12-.19.12-.3,0-.11,0-.23.03-.34.1-.07.14-.12.13-.16-.01-.04,0-.08.02-.12.03-.03.06-.05.11-.08s.08-.05.11-.08c.11-.1.21-.16.29-.17.08-.01.16-.01.24.01.08.02.16.05.25.1s.19.06.3.06c.03.09.06.15.1.18.04.04.07.07.1.1.03.03.05.07.08.13.02.06.03.14.03.24.07.14.1.23.09.26-.01.03-.02.06-.02.09,0,.16,0,.3.02.44.01.14.02.28.02.44.03.26.02.45-.01.58-.04.13,0,.27.12.41-.07,0-.1.03-.09.1.01.06,0,.1-.06.12.04.21.06.42.04.62-.01.2-.04.4-.06.6-.03.2-.05.4-.08.59s-.01.38.03.57c-.09.04-.13.13-.13.26,0,.07,0,.15.02.23.01.08.02.15.02.23,0,.1,0,.2-.02.29-.01.09-.02.19-.02.29,0,.04,0,.09.02.13.01.04.02.09.02.15s-.03.08-.09.08c-.06,0-.09.02-.09.08,0,.1.01.2.03.29.02.09.03.19.03.29v.58c.09.01.16.01.24-.01.07-.02.15-.04.25-.06.09-.02.2-.02.32,0,.12.02.28.08.46.18.13-.06.29-.09.49-.09.16,0,.3.02.43.06s.26.06.41.06c.04,0,.09,0,.14.01.05,0,.09.03.12.08.16.03.31.04.46.03.15,0,.3-.01.46-.01.13,0,.26.02.39.06s.26.06.39.06c.14,0,.31-.01.5-.04.19-.03.35.01.46.13.19-.04.32-.06.41-.05.09,0,.21.07.37.18.19-.07.38-.1.57-.1.19,0,.39.01.59.01.09,0,.14-.02.16-.06s.04-.1.05-.17c.1.04.18.07.23.08.05,0,.12,0,.23-.03.07-.09.11-.18.11-.29s-.02-.21-.05-.32c-.04-.11-.08-.22-.12-.33-.04-.11-.07-.21-.09-.3-.03-.13-.04-.26-.02-.4.01-.14,0-.27-.06-.4,0-.04.01-.08.03-.12.02-.04.04-.08.05-.12.03-.07.04-.14.02-.19-.01-.06-.02-.12-.02-.19,0-.04.01-.08.03-.11.02-.03.03-.06.03-.11.03-.16.05-.28.06-.38.01-.09.02-.18.02-.27,0-.1,0-.2.01-.31,0-.11.01-.23.01-.37s0-.26-.01-.39c0-.12-.01-.2-.01-.25s0-.09-.02-.13c-.01-.04-.02-.09-.02-.15,0-.07.02-.14.05-.2.04-.06.05-.13.05-.2,0-.06-.01-.11-.03-.16-.02-.05-.03-.11-.03-.18s0-.15.02-.24c.01-.09.02-.16.02-.24,0-.11-.02-.21-.06-.3s-.06-.18-.06-.28c0-.07,0-.14.02-.21.01-.07.02-.14.02-.21,0-.16,0-.31-.02-.45-.01-.14-.06-.29-.13-.43.04-.16.08-.25.11-.27.03-.02.06-.05.09-.1,0-.17.05-.28.16-.33.11-.05.16-.12.16-.23.11-.01.22-.03.31-.05.09-.02.2-.03.31-.03.2,0,.34.05.42.14.08.09.18.13.29.12.01.1.05.18.11.25.06.06.11.13.15.2.04.07.06.15.05.25,0,.09-.06.2-.16.33.04.43.06.87.04,1.31-.01.44-.02.88-.02,1.31v.17c0,.06,0,.12-.02.19-.01.04-.04.08-.06.12-.03.04-.04.08-.04.14.03.13.04.2.02.23-.01.02-.02.05-.02.08,0,.07.02.13.05.17.04.04.05.09.05.15,0,.1-.01.19-.04.28-.03.09-.04.19-.04.3s-.04.2-.13.26c.04.16.07.33.09.5.01.18.04.35.06.5.03.07.05.13.08.17s.03.1.03.17c0,.09-.02.18-.05.27-.04.09-.05.19-.05.29,0,.04.01.09.04.13.03.04.05.09.06.15.01.03.02.06.01.11,0,.04-.01.08-.01.11,0,.07.01.14.03.2s.04.12.05.17c.01.05.02.11.01.17,0,.06-.04.13-.1.2.03.11.05.22.08.31.02.09.07.19.14.29.04.07.06.17.05.3,0,.13.02.25.1.37,0,.1-.03.17-.09.2-.06.04-.1.09-.13.16Z"/>
      <path class="cls-1" d="m38.47,20c-.09.07-.18.18-.27.32-.09.14-.18.23-.27.26-.03.01-.06.02-.11.01-.04,0-.09-.01-.13-.01-.07,0-.12.01-.15.04s-.07.05-.13.06c-.1-.06-.2-.09-.3-.11-.1-.01-.2-.05-.3-.11-.09,0-.15.02-.19.06s-.1.06-.17.06-.14-.01-.2-.04c-.06-.03-.13,0-.18.06-.27-.09-.55-.15-.83-.18-.28-.04-.56-.09-.83-.16-.11.06-.23.08-.33.08-.11,0-.22,0-.33.03-.04.01-.09.03-.13.05s-.09.03-.13.03c-.06,0-.11,0-.15-.02-.04-.01-.09-.02-.15-.02-.09,0-.17.02-.26.05-.09.04-.17.05-.26.05-.07,0-.13-.02-.17-.05-.04-.04-.1-.02-.17.05-.04-.07-.09-.09-.14-.05-.05.04-.1.07-.14.1-.23,0-.38-.01-.46-.03-.08-.02-.17-.02-.27-.01v.43c0,.19,0,.38.01.57,0,.19.01.37.01.54s0,.28-.02.33c.04.1.12.15.23.15h.27c.2.09.4.13.61.14.21,0,.41.01.61.01.07,0,.13,0,.18-.02.05-.01.11-.02.18-.02.06,0,.15.01.27.03.12.02.24.04.37.04.12,0,.23,0,.32-.03.09-.03.14-.1.14-.21.16-.03.27,0,.33.09s.13.13.2.13.12-.03.15-.09c.03-.06.07-.1.13-.13.06,0,.09.03.11.08.01.05.07.08.17.08.09,0,.18-.03.29-.1s.22-.02.33.12c.1.03.17.03.21,0,.04-.03.11-.05.19-.06.1.17.21.33.34.48s.23.32.3.5c-.04,0-.09.02-.15.06-.06.04-.11.1-.15.16s-.08.13-.11.18c-.03.06-.04.11-.02.15-.09.07-.18.14-.27.2-.09.06-.2.1-.31.1s-.18-.02-.2-.06-.07-.06-.14-.06-.13.01-.18.03c-.05.02-.1.03-.16.03-.07,0-.15-.01-.23-.03-.08-.02-.16-.03-.25-.03-.1,0-.2.02-.29.05-.09.04-.19.05-.29.05-.07,0-.13-.01-.18-.04-.05-.03-.1-.05-.16-.06-.1-.01-.19-.02-.28-.03-.09,0-.18-.01-.28-.01-.07,0-.13.02-.18.05-.05.04-.11.05-.18.05s-.15-.01-.23-.03c-.08-.02-.15-.03-.23-.03-.06,0-.11,0-.15.02-.04.01-.09.02-.13.02-.26.03-.47.05-.62.08-.16.02-.32.05-.47.1.01.16.02.32.03.47,0,.16.05.31.12.45,0,.04-.02.07-.05.09-.04.01-.05.06-.05.13.11.14.18.3.2.46.02.17.02.33.01.5-.01.17-.03.34-.04.52-.01.17.01.34.09.52-.04.11-.08.22-.1.31-.02.09-.03.2-.01.31.1.14.23.21.39.21.07,0,.14,0,.19-.01.06,0,.12-.01.19-.01.06,0,.11,0,.15.02.04.01.09.02.15.02.17,0,.34-.01.52-.03s.34-.03.52-.03c.06,0,.11,0,.16.01.05,0,.1.01.16.01.1,0,.2-.01.29-.03.09-.02.19-.03.29-.03.07,0,.14.01.19.03.06.02.12.03.19.03.13,0,.25-.02.38-.06.12-.04.25-.06.38-.06.03,0,.06,0,.11.01.04,0,.08.01.11.01.07,0,.12-.03.15-.1.03-.06.06-.1.09-.12.07-.01.14-.03.21-.04.07-.01.14-.03.21-.04.06-.01.1,0,.14.05.04.05.06.1.08.14.13.01.23.06.31.13.08.07.18.11.29.13.03.07.06.13.11.18.04.05.1.08.17.08-.03.11-.01.24.04.37-.09.03-.16.08-.23.15-.06.07-.13.12-.2.15.01.09.03.17.04.25.01.08.01.17,0,.27-.03.03-.07.04-.12.03-.05,0-.1-.01-.14-.01-.1,0-.16.03-.18.1s-.07.1-.14.1c-.04-.03-.1-.04-.17-.04h-.42c-.06,0-.12-.01-.16-.04-.09,0-.16.02-.21.05-.06.04-.11.08-.17.14-.14-.06-.28-.06-.4-.02-.12.04-.24.1-.35.17-.06-.06-.11-.09-.16-.09s-.11,0-.18.02c0-.04-.02-.08-.05-.12-.04-.04-.06-.08-.08-.12-.24.04-.49.05-.73.03-.24-.02-.49,0-.73.08-.13-.07-.28-.11-.46-.11s-.33.05-.46.15c-.11-.06-.24-.06-.37-.01-.13.05-.26.08-.39.08-.19-.04-.3-.05-.33-.01s-.08.05-.12.05h-.2c-.06,0-.13-.01-.2-.04-.07-.1-.13-.15-.18-.15s-.1-.01-.16-.04c-.01-.11-.08-.22-.19-.32-.11-.1-.21-.19-.28-.26.04-.03.09-.05.14-.08.05-.02.08-.06.08-.12-.1-.14-.15-.24-.16-.3,0-.06,0-.12,0-.18,0-.06,0-.13,0-.19,0-.06-.04-.12-.1-.16.14-.04.21-.09.21-.15,0-.2-.03-.39-.09-.56-.06-.17-.09-.36-.09-.56.11-.11.17-.2.16-.25,0-.05-.01-.15-.01-.29,0-.16.01-.3.03-.44.02-.14-.03-.26-.16-.38.03-.14.03-.28.01-.42-.02-.14-.03-.28-.03-.42,0-.17.02-.34.05-.5.04-.16.05-.33.05-.5,0-.1-.02-.17-.05-.21-.04-.04-.05-.09-.05-.13.04-.19.05-.3.02-.35-.03-.05-.05-.11-.06-.18-.03-.21-.03-.44-.01-.67.02-.23.03-.46.03-.69,0-.16-.03-.34-.08-.54-.05-.2-.06-.34-.03-.43-.03-.04-.05-.09-.06-.15-.01-.06-.05-.1-.11-.13.09-.11.08-.22-.01-.31-.09-.09-.14-.2-.14-.31,0-.13.02-.24.08-.32.05-.09.05-.2-.01-.34.13-.06.27-.11.43-.15.07-.07.11-.13.13-.18.01-.05.09-.08.24-.08.24,0,.48.02.71.05.23.04.47.08.71.12.06-.01.11-.02.15-.03.04,0,.09-.02.13-.05.11.06.22.08.32.08.1,0,.2-.02.29-.05.09-.03.19-.06.28-.1.09-.04.19-.05.29-.05.11,0,.22.01.32.03.1.02.21.03.32.03.37,0,.75-.02,1.13-.08.38-.05.76-.06,1.13-.03.13.07.18.14.15.19.06-.03.11-.05.16-.06.05-.01.11-.02.18-.02.17,0,.37,0,.59.01.22,0,.41.03.57.08.09.09.16.14.21.15.07.03.14.05.19.08.06.02.12.05.19.08.06.03.11.05.16.08.05.02.1.05.16.08.1.14.12.25.05.31s-.06.14.01.23Z"/>
      <path class="cls-1" d="m48.78,28.72c-.04.07-.1.14-.16.19-.06.06-.12.12-.16.19.04.09.06.17.05.24,0,.07-.02.16-.03.26-.09.04-.17.1-.24.17s-.16.07-.26,0c-.1.11-.25.18-.46.19-.21.01-.38,0-.5-.06-.04.03-.09.06-.13.1-.04.04-.09.07-.15.1-.09.01-.14.06-.17.13-.1.03-.2.04-.3.02-.1-.01-.2-.02-.3-.02-.24.03-.4.02-.48-.03-.08-.05-.19-.04-.33.03-.11-.03-.21-.09-.28-.17-.1.01-.17.04-.19.08-.03.04-.08.07-.15.1-.11-.01-.23-.03-.35-.04-.12-.01-.24-.02-.35-.02-.1,0-.19.02-.26.06-.07.04-.12.06-.15.06-.21-.04-.37-.05-.47-.01-.1.04-.2.07-.3.1-.07.03-.18.04-.32.04-.04.01-.09.03-.14.04-.05.01-.1.04-.14.09-.09-.03-.2-.05-.34-.06-.14-.01-.21.06-.21.21-.04-.06-.07-.11-.08-.16,0-.05-.06-.07-.16-.05-.1-.13-.17-.19-.21-.17-.04.01-.08,0-.11-.02-.03-.07-.05-.12-.06-.16-.01-.04-.06-.07-.13-.1-.06-.07-.11-.13-.17-.18-.06-.05-.11-.11-.15-.18-.01-.07,0-.12.03-.16s.07-.09.1-.16c-.06-.03-.09-.06-.11-.1-.01-.04-.04-.09-.06-.16,0-.07.02-.14.05-.2.04-.06.08-.13.12-.2-.06-.07-.08-.14-.05-.2s.03-.13.03-.2c0-.13-.02-.25-.05-.37-.04-.11-.05-.23-.05-.34s.01-.24.03-.37-.03-.23-.14-.3c.04-.2.04-.4,0-.6-.04-.2-.02-.39.06-.58-.01-.09-.04-.15-.08-.2-.04-.05-.07-.11-.1-.18.03-.09.04-.18.03-.27,0-.09-.01-.18-.02-.27,0-.09-.01-.18-.01-.27s.02-.18.06-.27c-.04-.09-.08-.19-.1-.31-.02-.12-.04-.25-.04-.4,0-.14,0-.28.01-.4.01-.12.04-.23.06-.31.01-.09,0-.14-.02-.15-.03-.01-.06-.06-.09-.13.03-.1.04-.2.04-.3s.03-.19.09-.28c-.07-.11-.1-.24-.1-.39,0-.14.02-.29.04-.44s.04-.3.04-.45c0-.15-.03-.3-.12-.44,0-.1.03-.17.09-.2.06-.04.09-.09.09-.16v-.43s.08-.04.11-.08c.03-.04.06-.07.09-.1.07-.07.14-.11.21-.12.07,0,.15-.07.24-.18.19-.04.28-.04.29,0,0,.04.05.1.12.17.07-.03.13-.04.17-.02.04.01.1.04.17.06.07.13.18.3.31.52.14.21.2.39.2.54,0,.04-.03.09-.09.13-.06.04-.1.09-.13.13v.14s-.01.08-.04.12c-.01.1,0,.17.03.19.04.03.06.08.08.15-.11.07-.15.15-.12.23.04.08.05.17.05.27,0,.09-.02.16-.05.23-.04.06,0,.13.1.2-.1.07-.11.17-.04.28-.01.09-.03.17-.03.26,0,.09-.01.18-.01.28,0,.07.02.13.05.17.04.04.05.09.05.13,0,.03-.01.06-.03.1-.02.04-.03.08-.03.12s.01.08.03.12c.02.04.03.08.03.12,0,.03-.02.07-.05.12-.04.05-.05.1-.05.16,0,.11.01.24.04.38.03.14.08.26.15.38-.07.1-.09.2-.04.29.04.09.03.16-.04.2-.04.09-.04.14.02.16.06.02.09.05.09.1s-.01.08-.03.12c-.02.04-.03.08-.03.12,0,.1.01.2.04.29.03.09,0,.18-.11.25.09.21.16.46.23.72.06.27.08.52.05.76.09.03.13.09.13.17s.05.14.15.17c-.01.07-.03.12-.05.15-.02.03,0,.08.08.15.27.11.54.14.82.09.27-.06.55-.09.84-.09.14,0,.24.01.29.03.05.02.09.05.11.09.02.04.04.06.05.09.01.02.06.03.15.03.31-.1.59-.13.82-.1.23.04.43.01.6-.08.04,0,.09.02.13.05.04.04.09.06.15.08.09-.13.2-.2.35-.2.15,0,.28-.07.4-.18.11-.01.23-.01.34,0,.11-.06.24-.1.37-.12s.26-.05.39-.1c.16.07.26.19.31.35.05.17.08.33.1.48Z"/>
      <path class="cls-1" d="m58.6,28.72c-.04.07-.1.14-.16.19-.06.06-.12.12-.16.19.04.09.06.17.05.24,0,.07-.02.16-.03.26-.09.04-.17.1-.24.17s-.16.07-.26,0c-.1.11-.25.18-.46.19-.21.01-.38,0-.5-.06-.04.03-.09.06-.13.1-.04.04-.09.07-.15.1-.09.01-.14.06-.17.13-.1.03-.2.04-.3.02-.1-.01-.2-.02-.3-.02-.24.03-.4.02-.48-.03-.08-.05-.19-.04-.33.03-.11-.03-.21-.09-.28-.17-.1.01-.17.04-.19.08-.03.04-.08.07-.15.1-.11-.01-.23-.03-.35-.04-.12-.01-.24-.02-.35-.02-.1,0-.19.02-.26.06-.07.04-.12.06-.15.06-.21-.04-.37-.05-.47-.01-.1.04-.2.07-.3.1-.07.03-.18.04-.32.04-.04.01-.09.03-.14.04-.05.01-.1.04-.14.09-.09-.03-.2-.05-.34-.06-.14-.01-.21.06-.21.21-.04-.06-.07-.11-.08-.16,0-.05-.06-.07-.16-.05-.1-.13-.17-.19-.21-.17-.04.01-.08,0-.11-.02-.03-.07-.05-.12-.06-.16-.01-.04-.06-.07-.13-.1-.06-.07-.11-.13-.17-.18-.06-.05-.11-.11-.15-.18-.01-.07,0-.12.03-.16s.07-.09.1-.16c-.06-.03-.09-.06-.11-.1-.01-.04-.04-.09-.06-.16,0-.07.02-.14.05-.2.04-.06.08-.13.12-.2-.06-.07-.08-.14-.05-.2s.03-.13.03-.2c0-.13-.02-.25-.05-.37-.04-.11-.05-.23-.05-.34s.01-.24.03-.37-.03-.23-.14-.3c.04-.2.04-.4,0-.6-.04-.2-.02-.39.06-.58-.01-.09-.04-.15-.08-.2-.04-.05-.07-.11-.1-.18.03-.09.04-.18.03-.27,0-.09-.01-.18-.02-.27,0-.09-.01-.18-.01-.27s.02-.18.06-.27c-.04-.09-.08-.19-.1-.31-.02-.12-.04-.25-.04-.4,0-.14,0-.28.01-.4.01-.12.04-.23.06-.31.01-.09,0-.14-.02-.15-.03-.01-.06-.06-.09-.13.03-.1.04-.2.04-.3s.03-.19.09-.28c-.07-.11-.1-.24-.1-.39,0-.14.02-.29.04-.44s.04-.3.04-.45c0-.15-.03-.3-.12-.44,0-.1.03-.17.09-.2.06-.04.09-.09.09-.16v-.43s.08-.04.11-.08c.03-.04.06-.07.09-.1.07-.07.14-.11.21-.12.07,0,.15-.07.24-.18.19-.04.28-.04.29,0,0,.04.05.1.12.17.07-.03.13-.04.17-.02.04.01.1.04.17.06.07.13.18.3.31.52.14.21.2.39.2.54,0,.04-.03.09-.09.13-.06.04-.1.09-.13.13v.14s-.01.08-.04.12c-.01.1,0,.17.03.19.04.03.06.08.08.15-.11.07-.15.15-.12.23.04.08.05.17.05.27,0,.09-.02.16-.05.23-.04.06,0,.13.1.2-.1.07-.11.17-.04.28-.01.09-.03.17-.03.26,0,.09-.01.18-.01.28,0,.07.02.13.05.17.04.04.05.09.05.13,0,.03-.01.06-.03.1-.02.04-.03.08-.03.12s.01.08.03.12c.02.04.03.08.03.12,0,.03-.02.07-.05.12-.04.05-.05.1-.05.16,0,.11.01.24.04.38.03.14.08.26.15.38-.07.1-.09.2-.04.29.04.09.03.16-.04.2-.04.09-.04.14.02.16.06.02.09.05.09.1s-.01.08-.03.12c-.02.04-.03.08-.03.12,0,.1.01.2.04.29.03.09,0,.18-.11.25.09.21.16.46.23.72.06.27.08.52.05.76.09.03.13.09.13.17s.05.14.15.17c-.01.07-.03.12-.05.15-.02.03,0,.08.08.15.27.11.54.14.82.09.27-.06.55-.09.84-.09.14,0,.24.01.29.03.05.02.09.05.11.09.02.04.04.06.05.09.01.02.06.03.15.03.31-.1.59-.13.82-.1.23.04.43.01.6-.08.04,0,.09.02.13.05.04.04.09.06.15.08.09-.13.2-.2.35-.2.15,0,.28-.07.4-.18.11-.01.23-.01.34,0,.11-.06.24-.1.37-.12s.26-.05.39-.1c.16.07.26.19.31.35.05.17.08.33.1.48Z"/>
      <path class="cls-1" d="m62.08,29.97c-.13.01-.25,0-.37-.03-.11-.04-.24-.06-.37-.08-.03-.06-.07-.12-.13-.18-.06-.06-.12-.11-.19-.14-.23-.1-.37-.21-.41-.34s-.17-.21-.37-.24c0-.09-.01-.15-.04-.18-.03-.04-.06-.07-.1-.1-.04-.03-.08-.05-.12-.08s-.09-.06-.13-.12c-.04-.16-.09-.31-.15-.47-.06-.16-.17-.28-.32-.37,0-.16,0-.26-.02-.31-.01-.05-.03-.08-.05-.09-.02,0-.04-.01-.06-.02-.02,0-.05-.05-.08-.12.01-.16-.02-.28-.1-.38-.08-.09-.13-.16-.16-.2,0-.06,0-.11.01-.16,0-.05.02-.1.05-.16-.09-.03-.14-.08-.16-.14s-.04-.13-.05-.2c-.01-.07-.03-.14-.04-.21-.01-.07-.06-.13-.13-.17.03-.19.05-.38.05-.57,0-.19-.05-.37-.16-.53.13-.17.2-.36.2-.57,0-.21.05-.41.12-.61,0-.07-.02-.14-.05-.2-.04-.06-.07-.13-.1-.2.11-.03.17-.11.16-.24,0-.13-.01-.24-.01-.34.06-.11.11-.21.17-.3.06-.09.11-.17.15-.25.04-.08.08-.16.11-.26.03-.09.04-.21.04-.35.11-.07.21-.16.3-.26.09-.1.17-.2.26-.31s.17-.21.26-.3c.09-.09.19-.18.3-.25.04-.07.09-.12.14-.16.05-.04.09-.1.12-.2.14-.04.28-.11.4-.19.12-.09.24-.16.35-.24.2-.13.43-.24.68-.33.25-.09.5-.15.74-.18.04-.04.09-.08.15-.11.06-.03.11-.06.17-.11.07-.01.14-.02.2-.01.06,0,.12,0,.16,0,.04,0,.09-.02.13-.05.04-.03.08-.09.11-.19l.13.26c.1.01.18.03.24.03.06,0,.12-.04.19-.14.17.04.34.07.52.09.17.01.34.04.52.06.14.13.23.21.25.25.02.04.05.08.08.14.11.01.21.05.28.12.07.06.17.1.3.1.04.11.11.18.2.2.09.02.15.09.18.2.1.01.2.05.3.11.09.17.2.31.35.41.15.1.26.24.33.43.09.04.15.1.2.16.05.06.1.13.15.19.05.06.1.13.15.19.05.06.12.11.2.14,0,.07-.01.13-.04.16-.03.04-.04.08-.02.12.09.03.14.08.16.15.02.07.04.14.06.21.02.07.05.14.09.2.04.06.1.1.2.12,0,.13,0,.23.02.29.01.06.04.15.09.27.07.14.11.28.12.42,0,.14.02.28.05.44,0,.04.02.08.05.11.04.03.07.06.1.09-.03.11-.03.23,0,.34.03.11.04.23.04.34,0,.07-.02.12-.06.14s-.06.05-.06.08c.01.03.05.06.12.1.06.04.11.07.14.1-.1.03-.16.08-.18.16-.02.08-.03.17-.03.27,0,.09,0,.18.01.28,0,.1,0,.19-.01.26-.01.06-.04.1-.06.13s-.04.07-.04.13c.03.16.03.25,0,.28s-.05.06-.06.11c-.01.07-.02.14-.01.19,0,.06.01.12.01.19,0,.11-.03.21-.08.28-.05.07-.11.15-.18.24-.01.07,0,.12.03.15.04.03.04.08.01.15-.11.19-.22.37-.32.55-.1.18-.2.37-.3.57-.07.11-.15.2-.25.26-.09.06-.17.17-.23.32-.14.03-.29.09-.44.18-.15.09-.29.19-.43.29-.14.1-.25.19-.35.28-.1.09-.16.13-.17.13-.1.01-.17.04-.21.08-.04.04-.12.05-.24.05-.07-.01-.12.02-.15.11-.03.09-.11.14-.24.17-.19.07-.31.11-.37.11s-.12-.04-.19-.13c-.1,0-.19.02-.28.05-.09.04-.18.05-.28.05-.09,0-.17-.02-.26-.05-.09-.04-.17-.05-.26-.05-.07-.01-.14-.02-.19-.01-.06,0-.12.01-.19.01s-.17-.02-.28-.05c-.11-.04-.21-.07-.28-.1-.16-.09-.28-.16-.37-.23s-.19-.1-.32-.1l-.11-.11Zm5.24-7.39c-.13-.06-.21-.12-.25-.2-.04-.08-.07-.17-.11-.27-.04-.1-.06-.19-.09-.28s-.03-.15-.03-.19c-.06-.09-.12-.15-.19-.19-.07-.04-.14-.09-.2-.14-.06-.05-.13-.1-.18-.16-.06-.06-.09-.14-.11-.26-.11-.03-.21-.08-.29-.15-.08-.07-.18-.12-.29-.15,0-.07-.01-.11-.04-.12-.03,0-.05-.04-.06-.1-.2-.03-.36-.08-.48-.15-.12-.07-.26-.14-.42-.21-.07.07-.13.1-.18.08-.05-.02-.11-.03-.18-.03-.06,0-.11.03-.17.09s-.12.1-.19.13c-.04-.07-.11-.11-.19-.12-.09,0-.17-.02-.24-.05-.06.04-.13.08-.23.12-.09.04-.18.07-.25.1-.27.11-.52.31-.75.58-.17.14-.32.25-.44.33-.12.08-.25.15-.4.2-.01.13-.06.24-.13.34-.07.1-.11.21-.13.34-.16.06-.28.19-.37.39-.09.2-.14.37-.17.52.09.13.14.27.17.43.03.16.08.31.15.45l-.19.19c-.06.06-.11.13-.15.21-.13.04-.19.15-.18.31,0,.17.04.34.1.54.06.19.12.38.2.55.08.17.14.28.18.32-.03.04-.06.09-.09.13-.03.04-.04.09-.02.13.16.17.26.4.3.69.06.06.11.1.17.14.06.04.11.07.16.11.05.04.09.08.11.14.02.06.03.14.03.26.07,0,.12.01.16.04.04.03.07.06.1.1.03.04.06.07.09.11.03.04.08.05.15.05l.19.21c.07.04.14.06.19.05.06,0,.1.05.13.16.23.06.45.13.67.21l.64.26c.11-.04.23-.06.34-.04.11.01.23,0,.34-.02.07,0,.12-.02.16-.08.04-.05.09-.08.16-.08.04,0,.08.03.1.08.02.05.08.06.18.03.03-.07.08-.1.14-.09.06.01.12,0,.16-.02.09-.04.15-.11.18-.19.04-.09.12-.13.25-.13.13-.2.29-.38.47-.53.19-.15.34-.33.47-.53h.21c.04-.2.1-.41.18-.63.08-.22.1-.43.08-.63.07-.24.12-.47.16-.69.04-.21.05-.42.05-.62,0-.07-.02-.14-.05-.2-.04-.06-.05-.13-.05-.2s.01-.14.03-.21c.02-.07.03-.14.03-.21,0-.2-.01-.4-.03-.61-.02-.21-.05-.41-.08-.61Z"/>
      <path class="cls-1" d="m73.08,26.66c-.11-.07-.21-.08-.3-.01s-.19.1-.3.1c-.09,0-.16-.02-.21-.08-.06-.05-.14-.07-.24-.05,0-.09-.02-.15-.05-.18-.04-.04-.08-.06-.14-.09-.06-.02-.11-.05-.16-.08-.05-.03-.08-.08-.1-.15-.03-.1-.04-.2-.02-.29.01-.09,0-.19-.02-.29-.04-.16-.1-.3-.17-.42-.07-.12-.04-.28.09-.46-.09-.17-.12-.36-.1-.57.02-.21-.01-.4-.1-.59.01-.07.03-.14.04-.19.01-.06.03-.12.04-.19-.06-.14-.1-.32-.12-.53-.02-.21-.05-.4-.08-.57-.01-.1,0-.15.06-.16.06,0,.07-.05.04-.14.03-.09.01-.13-.04-.14-.06,0-.09-.05-.09-.12,0-.04.01-.08.03-.12.02-.04.03-.07.03-.1,0-.04,0-.08-.02-.12-.01-.04-.02-.08-.02-.12,0-.03.02-.05.05-.06.04-.01.05-.08.05-.19,0-.06,0-.14-.02-.25-.01-.11-.03-.22-.03-.34,0-.12,0-.23.01-.32.01-.09.04-.16.09-.2-.03-.04-.05-.09-.08-.14-.02-.05-.05-.1-.08-.14.03-.04.04-.11.04-.21,0-.11.02-.23.06-.33s.07-.22.09-.33c.01-.06.02-.11.01-.16,0-.05-.01-.1-.01-.16,0-.07.02-.14.05-.19.04-.06.05-.11.05-.15-.01-.13-.03-.21-.04-.25-.01-.04-.02-.07-.02-.1,0-.06.02-.11.05-.15.04-.04.05-.09.05-.15,0-.03,0-.06-.02-.1-.01-.04-.02-.08-.02-.12,0-.11.01-.22.04-.31.03-.09.04-.19.04-.29,0-.09-.02-.16-.05-.23-.04-.06-.05-.13-.05-.2,0-.06,0-.11.01-.15,0-.04.01-.09.01-.15.13-.07.31-.12.54-.15.23-.03.42,0,.56.06,0,.07.01.17.03.28.02.11.1.14.23.06.03.16.08.32.14.47.06.16.1.32.1.49,0,.11-.03.22-.08.31-.05.09-.08.2-.08.31,0,.07,0,.14.02.19.01.06.02.12.02.19,0,.06-.01.1-.04.14-.03.04-.04.08-.04.14.01.19,0,.29-.04.3.04.11.06.24.06.39v.43c0,.14.01.28.04.41.03.13.09.24.17.32-.01.11-.05.2-.12.27s-.1.14-.1.23c0,.1.02.19.06.27.04.08.06.17.06.27,0,.09-.01.17-.03.26s-.03.17-.03.26c0,.24,0,.49.02.75.01.26.04.51.09.75.01.07.04.14.06.2.03.06.04.13.04.2s-.01.13-.03.18c-.02.05-.03.11-.03.18,0,.2.04.39.12.58.08.19.1.38.08.58.04.07.09.14.14.19.05.06.1.12.16.19,0,.3-.05.53-.16.69-.11.16-.22.37-.33.62Zm.64,2.79c-.17.11-.24.28-.19.49-.07,0-.13.02-.16.05s-.08.07-.14.1c-.07.11-.17.21-.28.29-.11.08-.21.18-.3.29-.09-.06-.17-.08-.25-.05-.08.02-.16.02-.25-.01-.14-.13-.22-.21-.24-.25-.01-.04-.03-.07-.04-.11-.01-.04-.04-.08-.09-.12s-.11-.11-.21-.19c-.06-.16-.06-.31-.02-.46s.09-.3.13-.46c.14-.1.27-.23.39-.39.09.03.18.04.27.03.09,0,.18.02.27.08.09,0,.16-.02.23-.08.06-.05.13-.08.2-.08.11,0,.2.03.27.08.06.05.15.09.27.12.01.11.04.23.08.33.04.11.06.22.08.33Z"/>
    </g>
    <path class="cls-1" d="m82.68,11.84C70.35.39,50.28-1.22,34.36.67,23.99,2.1,13.18,5.04,5.27,12.28-.03,16.98-1.81,24.67,2.15,30.84c10.83,16.52,41.44,18.49,59.05,13.43,2.73,3.41,6.51,6.21,11.06,6.28.81.03,1.31-1.01.78-1.63-.96-1.14-1.73-2.42-2.18-3.82-.38-1.19-.58-2.47-.45-3.71,13.03-4.53,24.47-16.93,12.27-29.55Zm-13.5,27.89c-.27.11-.6.39-.66.7-.06.24-.08.5-.11.74-.23,2.48.45,4.96,1.71,7.09-3.1-.8-5.85-3.18-7.72-5.7-.22-.37-.65-.57-1.08-.47-.09.02-.17.05-.25.1-15.82,2.61-32.94,1.68-47.34-5.71-4.89-2.71-10.05-6.65-10.95-12.46-.75-6.02,3.66-11.01,8.52-14.24C21.74,3.12,34.71,1.38,46.89,1.94c12.19.37,38.57,6.61,38.16,21.91-.73,7.68-8.68,12.65-15.22,15.59-.2.08-.46.2-.66.28-.03.01-.1.03.01.01Z"/>
  </g>
</svg>