<?xml version="1.0" encoding="UTF-8"?>
<svg id="Layer_2" data-name="Layer 2" xmlns="http://www.w3.org/2000/svg" viewBox="0 0 685.64 685.64">
  <defs>
    <style>
      .cls-1 {
        fill: #1ab4d7;
        stroke-width: 0px;
      }
    </style>
  </defs>
  <g id="Layer_1-2" data-name="Layer 1">
    <path class="cls-1" d="m301.2,286.42c-25.95,0-47.73,17.8-53.82,41.86-.01.3-.04.6-.04.88h107.89c-5.78-24.5-27.77-42.74-54.03-42.74Zm0,0c-25.95,0-47.73,17.8-53.82,41.86-.01.3-.04.6-.04.88h107.89c-5.78-24.5-27.77-42.74-54.03-42.74Zm0,0c-25.95,0-47.73,17.8-53.82,41.86-.01.3-.04.6-.04.88h107.89c-5.78-24.5-27.77-42.74-54.03-42.74Zm229.74.23c-30.42,0-55.16,24.75-55.16,55.17s24.74,55.15,55.16,55.15,55.16-24.74,55.16-55.15-24.75-55.17-55.16-55.17Zm.02,74.21c-10.52,0-19.06-8.55-19.06-19.05s8.54-19.05,19.06-19.05,19.04,8.54,19.04,19.05-8.55,19.05-19.04,19.05Zm-.02-74.21c-30.42,0-55.16,24.75-55.16,55.17s24.74,55.15,55.16,55.15,55.16-24.74,55.16-55.15-24.75-55.17-55.16-55.17Zm.02,74.21c-10.52,0-19.06-8.55-19.06-19.05s8.54-19.05,19.06-19.05,19.04,8.54,19.04,19.05-8.55,19.05-19.04,19.05Zm-229.76-74.44c-25.95,0-47.73,17.8-53.82,41.86-.01.3-.04.6-.04.88h107.89c-5.78-24.5-27.77-42.74-54.03-42.74ZM342.82,0C153.49,0,0,153.48,0,342.82s153.49,342.82,342.82,342.82,342.82-153.49,342.82-342.82S532.15,0,342.82,0Zm-127.68,418.31c-2.85,0-5.52-1.14-7.59-3.28l-58.4-58.33-58.63,58.54c-1.97,1.98-4.6,3.06-7.4,3.06-5.77,0-10.48-4.69-10.48-10.47,0-2.84,1.12-5.49,3.18-7.51l58.46-58.58-58.49-58.48c-2.02-2-3.15-4.64-3.15-7.46,0-5.78,4.71-10.48,10.48-10.48,2.79,0,5.42,1.08,7.4,3.04l58.72,58.51s58.44-58.41,58.45-58.43c1.99-2.01,4.63-3.12,7.45-3.12,5.79,0,10.49,4.7,10.49,10.49,0,2.77-1.08,5.39-3.02,7.37l-58.51,58.65,58.47,58.61c1.97,1.97,3.05,4.6,3.05,7.39,0,5.78-4.7,10.48-10.48,10.48Zm140.71-68.12s-103.11.02-109.42.02c.02.51.08,1.05.15,1.62.54,3.03,1.32,5.97,2.34,8.81,5.8,15.19,22.12,36.47,52.61,36.81,9.31-.05,18.07-2.4,25.76-6.51,6.05-3.37,11.09-7.72,15.15-12.21,1.35-1.62,2.58-3.23,3.68-4.79,5.11-6.55,11.61-5.35,15.48-2.38,4.59,3.52,5.36,10.88,1.18,16.06-.12.14-.24.27-.36.41-6.02,7.54-12.23,13.84-19.66,18.62-7.17,4.59-14.94,7.85-22.98,9.81-9.35,2.42-18.38,2.96-27.65,1.83-31.27-3.82-57.49-26.91-65.24-57.41-1.55-6.14-2.29-12.37-2.29-18.54,0-24.62,11.85-48.51,32.38-63.12,25.18-17.9,59.59-18.82,85.66-2.27,17.83,11.28,29.53,28.85,34.05,50.23,2.23,12.11-5.84,22.7-20.84,23.01Zm88.25-62.96c-22.73,2.84-25.15,13.55-25.15,40.08,0,0-.01,79.58-.01,79.61-.01,5.77-4.71,10.46-10.48,10.46s-10.47-4.69-10.48-10.45c0,0-.04-129.44-.04-129.46.02-5.78,4.64-10.39,10.4-10.39,5.01,0,9.21,3.53,10.24,8.24,7.8-6.01,17.13-9.07,26.81-9.07h3.23c5.79.01,10.51,4.71,10.51,10.49s-4.42,10.05-10.64,10.27c0,0-2.29-.04-4.39.22Zm86.84,131.44c-42.38,0-76.86-34.48-76.86-76.85s34.48-76.87,76.86-76.87,76.88,34.48,76.88,76.87-34.5,76.85-76.88,76.85Zm0-132.02c-30.42,0-55.16,24.75-55.16,55.17s24.74,55.15,55.16,55.15,55.16-24.74,55.16-55.15-24.75-55.17-55.16-55.17Zm.02,74.21c-10.52,0-19.06-8.55-19.06-19.05s8.54-19.05,19.06-19.05,19.04,8.54,19.04,19.05-8.55,19.05-19.04,19.05Zm-229.76-74.44c-25.95,0-47.73,17.8-53.82,41.86-.01.3-.04.6-.04.88h107.89c-5.78-24.5-27.77-42.74-54.03-42.74Zm0,0c-25.95,0-47.73,17.8-53.82,41.86-.01.3-.04.6-.04.88h107.89c-5.78-24.5-27.77-42.74-54.03-42.74Zm0,0c-25.95,0-47.73,17.8-53.82,41.86-.01.3-.04.6-.04.88h107.89c-5.78-24.5-27.77-42.74-54.03-42.74Z"/>
  </g>
</svg>