<?xml version="1.0" encoding="UTF-8"?>
<svg id="Layer_2" data-name="Layer 2" xmlns="http://www.w3.org/2000/svg" viewBox="0 0 1000.43 685.7">
  <defs>
    <style>
      .cls-1 {
        fill: #00d639;
      }

      .cls-1, .cls-2 {
        stroke-width: 0px;
      }

      .cls-2 {
        fill: none;
      }
    </style>
  </defs>
  <g id="Layer_1-2" data-name="Layer 1">
    <path id="sagebrilliantgreen" class="cls-1" d="m596.88,637.04c-39.73-5.32-72.61-30.42-83.79-63.96-9.39-28.18-3.85-49.96,13.19-51.88,7.71-.87,12.71.52,17.52,4.87,4.93,4.45,6.21,7.76,7.29,18.84,3.17,32.44,27.1,54.21,59.58,54.21,11.72,0,19.02-1.58,28.88-6.27,19.09-9.06,29.2-26.31,28.06-47.89-.76-14.45-6.76-25.46-18.79-34.51-9.4-7.07-22.37-12.99-46.81-21.4-33.82-11.63-49.16-19.09-63.57-30.89-26.8-21.95-36.95-62.28-25.13-99.85,5.04-16.03,11.74-27.02,24.05-39.48,18.37-18.59,42.29-28.14,70.36-28.11,50.64.05,91.72,31.46,100.98,77.19,1.44,7.13,1.74,12.52,1.25,22.78-1.01,21.14-6.23,36.26-15.83,45.87-10.8,10.8-27.37,8.89-33.83-3.91-3.22-6.38-3.14-10.18.41-18.47,5.28-12.36,7.14-19.52,7.14-27.59,0-15.51-5.2-28.48-15.84-39.57-7.81-8.13-16.52-13.07-28.4-16.11-30.56-7.81-60.14,7.69-69.84,36.6-3.44,10.27-3.45,25.86-.03,35.5,3.22,9.04,9.22,17.47,16.77,23.56,8.51,6.86,27.33,15.93,48.17,23.23,33.66,11.78,45.07,17.1,59.38,27.71,14.63,10.85,23.48,23.39,29.06,41.2,2.25,7.19,2.61,10.66,2.62,25.1,0,14.1-.4,18.14-2.52,25.48-9.94,34.3-36.49,58.38-72.93,66.14-9.91,2.11-27.91,2.89-37.41,1.62h0Zm-442.4-149.7c-40.24-6.35-70.83-31.84-80.19-66.84-2.97-11.11-3.22-30.9-.52-41.95,3.94-16.14,13.46-30.09,22.6-33.1,7.73-2.55,17.9.93,22.99,7.85,3.96,5.39,3.82,11.81-.49,22.92-4.82,12.4-5.76,18.97-4.15,29.01,3.26,20.41,17.74,36.13,39.04,42.39,8.55,2.51,24.86,2.35,33.46-.32,30.13-9.38,43.58-41.88,28.87-69.78-7.23-13.71-23.64-24.22-57.14-36.57-35.8-13.2-49.12-20.53-63.84-35.13-11.51-11.42-16.95-20.54-20.77-34.86-3.32-12.41-3.31-34.24,0-46.71,6.81-25.62,23.77-46.32,47.59-58.08,14.4-7.12,26.82-9.89,44.19-9.86,30.05.04,52.53,9,72.08,28.74,15.44,15.58,22.67,30.4,25.05,51.33,2.31,20.37-5.28,30.63-21.88,29.57-10.72-.68-17.53-7.02-18.77-17.47-2.19-18.56-6.24-28.32-15.62-37.7-18.3-18.3-49.81-21.54-71.72-7.38-22.4,14.48-28.27,47.59-12.17,68.67,8.38,10.98,22.58,19.07,56.14,32,26.01,10.02,35.25,14.34,46.73,21.82,16.85,10.98,27.87,24.31,33.48,40.47,12.47,35.94,1.07,77.51-27.7,100.97-8.82,7.19-24.48,14.98-36.01,17.91-10.33,2.63-31.27,3.71-41.25,2.14h0Zm215.27-.12c-31.1-4.46-61.17-27.04-74.53-55.96-6.66-14.42-8.85-24.98-8.76-42.21.1-17.96,2.29-27.7,9.67-43.02,9.73-20.18,25.25-35.47,45.98-45.31,14.87-7.05,22.84-8.97,40.23-9.67,22.54-.91,39.71,3.1,56.84,13.26,8.48,5.03,22.15,17.44,28.03,25.45,6.06,8.25,12.87,22.95,16.02,34.58,2.89,10.66,2.92,11.14,3.33,58.72.37,42.86.21,48.49-1.46,52.88-5.94,15.55-30.78,16.53-38.44,1.52-1.95-3.83-2.16-7.73-2.6-49.91-.4-38.18-.79-46.94-2.35-52.92-4.74-18.09-15.85-32.74-30.17-39.79-34.44-16.95-74.36,3.83-81.77,42.57-2.03,10.58-2.01,14.64.07,24.5,2.25,10.65,7.34,20.55,14.63,28.42,14.72,15.9,30.72,20.83,54.7,16.87,11.56-1.91,16.14-1.02,21.62,4.2,11.57,11.03,7.18,26.34-9.33,32.52-11.67,4.37-26.24,5.52-41.69,3.3h0Zm449.85.08c-35.32-5.18-64.97-27.17-79.32-58.81-10.92-24.08-10.68-55.71.6-80.13,12.32-26.67,35.25-46.24,63.84-54.48,12.14-3.5,40.16-3.75,53.08-.47,42.71,10.85,70.4,43.24,70.79,82.79.09,9.11-.21,10.62-3.18,16.03-1.97,3.6-5.14,7.26-7.97,9.21-8.58,5.9-14.1,6.6-51.81,6.6-33.23,0-34.3-.07-39.09-2.51-6.58-3.36-9.22-7.27-9.8-14.48-.39-4.86,0-6.59,2.14-9.72q5.78-8.43,36.87-9.04c26.31-.53,28.05-.69,29.59-2.79,3.39-4.61-1.2-16.59-9.58-24.96-10.19-10.19-25.07-15.85-41.58-15.8-17.36.05-29.42,4.95-41.18,16.73-24.17,24.2-24.66,62.16-1.12,86.17,12.02,12.26,25.54,17.76,43.6,17.76s25.1-2.44,53.05-18c24.49-13.63,43.36,11.61,22.96,30.69-20.67,19.33-59.44,29.97-91.89,25.21h0Z"/>
    <rect class="cls-2" width="1000.43" height="685.7"/>
  </g>
</svg>