<?xml version="1.0" encoding="UTF-8"?>
<svg id="Layer_2" data-name="Layer 2" xmlns="http://www.w3.org/2000/svg" viewBox="0 0 685.33 685.7">
  <defs>
    <style>
      .cls-1 {
        fill: #2b9b1b;
        stroke-width: 0px;
      }
    </style>
  </defs>
  <g id="Layer_1-2" data-name="Layer 1">
    <path class="cls-1" d="m305.95,684.58C147.6,667.42,22.24,543.77,1.78,384.54c-2.37-18.44-2.37-64.53,0-82.97C16.74,185.13,86.21,87.29,190.8,35.36,273.77-5.82,374.05-11.36,460.57,20.47c110.37,40.61,192.17,134.58,217.77,250.17,9.32,42.1,9.32,102.73,0,144.82-22.85,103.17-90.41,189.67-183.78,235.29-33.21,16.23-60.15,24.9-96.59,31.11-21.16,3.6-70.41,5.03-92.02,2.69v.02Zm21.12-309.09v-169.71l-46.01-.57c-52.73-.57-68.42.8-88.65,7.53-44.34,14.7-77.05,49.9-88.74,95.5-4.75,18.51-5.43,46.22-1.56,63.73,10.44,47.3,44.32,85.23,90.41,101.22,13.89,4.8,17.31,5.37,35.37,5.98l19.99.63v-48.22l-15.46-.74c-24.59-1.2-41.88-8.85-59.23-26.24-20.97-21.02-29.27-51.23-22.65-82.46,5.31-25.06,22.65-46.92,46.05-58.06,17.21-8.19,24.27-9.39,55.14-9.39h26.32v144.57c0,79.51.47,145.03,1.04,145.61s11.6.86,24.51.63l23.47-.57v-169.71.3Zm142.56,102.47c47.05-7.62,88.14-39.43,105.06-81.33,7.82-19.37,10-31.04,10.12-54.34.1-18.25-.45-23.98-3.31-34.59-10.85-40.3-37.27-72.22-74.35-89.83-18.01-8.55-29.98-11.43-51.52-12.41l-19.27-.86.42,24.73.42,24.73,17.35.91c18.67.97,25.88,2.97,38.33,10.61,18.41,11.29,32.19,27.6,38.99,46.17,4.39,11.98,5.43,39.7,2.01,53.31-6.14,24.42-22.22,44.38-44.73,55.54-16.4,8.13-30.24,10.59-59.87,10.66l-23,.06V140.17h-49.78v339.42h51.67c28.91-.01,55.99-.7,61.47-1.61h0Z"/>
  </g>
</svg>